<?xml version="1.0" encoding="UTF-8"?>
<svg width="24px" height="24px" viewBox="0 0 24 24" version="1.1" xmlns="http://www.w3.org/2000/svg" xmlns:xlink="http://www.w3.org/1999/xlink">
    <!-- Generator: Sketch 54.1 (76490) - https://sketchapp.com -->
    <title>019-linkedin</title>
    <desc>Created with Sketch.</desc>
    <g id="Rebranding-02" stroke="none" stroke-width="1" fill="none" fill-rule="evenodd">
        <g id="Página-Inicial---Rebranding-V1.1-Copy-3" transform="translate(-392.000000, -4566.000000)" fill="#FFFFFF" fill-rule="nonzero">
            <g id="019-linkedin" transform="translate(392.000000, 4566.000000)">
                <path d="M12,24 C18.627417,24 24,18.627417 24,12 C24,5.372583 18.627417,-7.65186525e-15 12,-7.65186525e-15 C5.372583,-7.65186525e-15 0,5.372583 0,12 C0,18.627417 5.372583,24 12,24 Z M9.40910891,17.4958416 L6.40910891,17.4958416 L6.40910891,8.49584158 L9.40910891,8.49584158 L9.40910891,17.4958416 Z M7.90910891,7.49584158 C7.07758717,7.49584158 6.40910891,6.82736332 6.40910891,5.99584158 C6.40910891,5.16431985 7.07758717,4.49584158 7.90910891,4.49584158 C8.74063065,4.49584158 9.40910891,5.16431985 9.40910891,5.99584158 C9.39280456,6.82736332 8.7243263,7.49584158 7.90910891,7.49584158 Z M19.4091089,17.4958416 L19.3928156,17.4958416 L16.9488238,17.4958416 L16.9488238,13.1426746 C16.9488238,12.0889318 16.8184775,10.741523 15.4661354,10.741523 C14.0812067,10.741523 13.8531008,11.8816381 13.8531008,13.0735767 L13.8531008,17.4958416 L11.4091089,17.4958416 L11.4091089,8.51311606 L13.690168,8.51311606 L13.690168,9.72232911 L13.7553411,9.72232911 C14.1137932,9.03135022 14.9447505,8.49584158 16.2482128,8.49584158 C18.9366038,8.49584158 19.4091089,10.1369164 19.4091089,12.572617 L19.4091089,17.4958416 Z" id="Shape"></path>
            </g>
        </g>
    </g>
</svg>